<svg width="22" height="22" viewBox="0 0 22 22" fill="none" xmlns="http://www.w3.org/2000/svg">
<path fill-rule="evenodd" clip-rule="evenodd" d="M8.94445 8.55556C11.307 8.55556 13.2222 6.64033 13.2222 4.27778C13.2222 1.91523 11.307 0 8.94445 0C6.58189 0 4.66667 1.91523 4.66667 4.27778C4.66667 6.64033 6.58189 8.55556 8.94445 8.55556ZM15 19.2456V19H12V15H15V12.5796C13.5428 10.8653 11.3706 9.77778 8.94445 9.77778C4.55685 9.77778 1 13.3346 1 17.7222C1 19.5556 4.55685 19.5556 8.94445 19.5556C11.3706 19.5556 13.5428 19.5556 15 19.2456Z" fill="#7C7C7C"/>
<path d="M17 13L17 21M21 17L13 17" stroke="#4D4D4D" stroke-width="2"/>
</svg>
