<svg width="20" height="21" viewBox="0 0 20 21" fill="none" xmlns="http://www.w3.org/2000/svg">
<path fill-rule="evenodd" clip-rule="evenodd" d="M7.94445 8.55556C10.307 8.55556 12.2222 6.64033 12.2222 4.27778C12.2222 1.91523 10.307 0 7.94445 0C5.58189 0 3.66667 1.91523 3.66667 4.27778C3.66667 6.64033 5.58189 8.55556 7.94445 8.55556ZM14 19.2456V19H11V15H14V12.5796C12.5428 10.8653 10.3706 9.77778 7.94445 9.77778C3.55685 9.77778 0 13.3346 0 17.7222C0 19.5556 3.55685 19.5556 7.94445 19.5556C10.3706 19.5556 12.5428 19.5556 14 19.2456Z" fill="#7C7C7C"/>
<path d="M16 13L16 21M20 17L12 17" stroke="#4D4D4D" stroke-width="2"/>
</svg>
